<svg xmlns="http://www.w3.org/2000/svg" xmlns:xlink="http://www.w3.org/1999/xlink" width="500" zoomAndPan="magnify" viewBox="0 0 375 374.999991" height="500" preserveAspectRatio="xMidYMid meet" version="1.0"><defs><g/></defs><g fill="#ffffff" fill-opacity="1"><g transform="translate(8.943448, 229.546062)"><g><path d="M 71.71875 -54.828125 C 77.582031 -48.441406 80.515625 -40.613281 80.515625 -31.34375 C 80.515625 -22.070312 77.582031 -14.222656 71.71875 -7.796875 C 65.863281 -1.378906 58.425781 1.828125 49.40625 1.828125 C 41.113281 1.828125 34.28125 -0.773438 28.90625 -5.984375 L 28.90625 31.71875 L 7.3125 31.71875 L 7.3125 -62.578125 L 28.671875 -62.578125 L 28.671875 -55.5 L 28.90625 -55.5 C 34.28125 -61.4375 41.113281 -64.40625 49.40625 -64.40625 C 58.425781 -64.40625 65.863281 -61.210938 71.71875 -54.828125 Z M 53.359375 -20.734375 C 56.171875 -23.503906 57.578125 -27.039062 57.578125 -31.34375 C 57.578125 -35.65625 56.234375 -39.171875 53.546875 -41.890625 C 50.867188 -44.617188 47.332031 -45.984375 42.9375 -45.984375 C 38.707031 -45.984375 35.226562 -44.597656 32.5 -41.828125 C 29.78125 -39.066406 28.421875 -35.570312 28.421875 -31.34375 C 28.421875 -27.039062 29.820312 -23.503906 32.625 -20.734375 C 35.4375 -17.972656 38.875 -16.59375 42.9375 -16.59375 C 47.082031 -16.59375 50.554688 -17.972656 53.359375 -20.734375 Z M 53.359375 -20.734375 "/></g></g></g><g fill="#ffffff" fill-opacity="1"><g transform="translate(92.247621, 229.546062)"><g><path d="M 13.234375 -7.4375 C 6.285156 -13.625 2.8125 -21.554688 2.8125 -31.234375 C 2.8125 -40.910156 6.425781 -48.859375 13.65625 -55.078125 C 20.894531 -61.296875 29.84375 -64.40625 40.5 -64.40625 C 50.988281 -64.40625 59.832031 -61.273438 67.03125 -55.015625 C 74.226562 -48.753906 77.828125 -40.820312 77.828125 -31.21875 C 77.828125 -21.625 74.304688 -13.71875 67.265625 -7.5 C 60.234375 -1.28125 51.3125 1.828125 40.5 1.828125 C 29.28125 1.828125 20.191406 -1.257812 13.234375 -7.4375 Z M 29.9375 -41.828125 C 27.132812 -39.066406 25.734375 -35.53125 25.734375 -31.21875 C 25.734375 -26.914062 27.078125 -23.398438 29.765625 -20.671875 C 32.453125 -17.953125 35.988281 -16.59375 40.375 -16.59375 C 44.601562 -16.59375 48.078125 -17.972656 50.796875 -20.734375 C 53.523438 -23.503906 54.890625 -27.003906 54.890625 -31.234375 C 54.890625 -35.535156 53.484375 -39.066406 50.671875 -41.828125 C 47.867188 -44.597656 44.4375 -45.984375 40.375 -45.984375 C 36.226562 -45.984375 32.75 -44.597656 29.9375 -41.828125 Z M 29.9375 -41.828125 "/></g></g></g><g fill="#ffffff" fill-opacity="1"><g transform="translate(172.868499, 229.546062)"><g><path d="M 34.515625 -64.40625 C 38.097656 -64.40625 41.632812 -64 45.125 -63.1875 C 48.625 -62.375 51.226562 -61.5625 52.9375 -60.75 L 55.5 -59.53125 L 48.421875 -45.375 C 43.546875 -47.976562 38.910156 -49.28125 34.515625 -49.28125 C 32.078125 -49.28125 30.347656 -49.015625 29.328125 -48.484375 C 28.316406 -47.960938 27.8125 -46.96875 27.8125 -45.5 C 27.8125 -45.175781 27.851562 -44.847656 27.9375 -44.515625 C 28.019531 -44.191406 28.179688 -43.890625 28.421875 -43.609375 C 28.660156 -43.328125 28.878906 -43.082031 29.078125 -42.875 C 29.285156 -42.675781 29.632812 -42.453125 30.125 -42.203125 C 30.613281 -41.960938 31 -41.78125 31.28125 -41.65625 C 31.570312 -41.53125 32.039062 -41.347656 32.6875 -41.109375 C 33.34375 -40.867188 33.832031 -40.6875 34.15625 -40.5625 C 34.476562 -40.4375 35.023438 -40.25 35.796875 -40 C 36.578125 -39.757812 37.171875 -39.597656 37.578125 -39.515625 C 40.097656 -38.785156 42.289062 -37.972656 44.15625 -37.078125 C 46.03125 -36.179688 48.003906 -34.960938 50.078125 -33.421875 C 52.148438 -31.878906 53.753906 -29.925781 54.890625 -27.5625 C 56.023438 -25.207031 56.59375 -22.523438 56.59375 -19.515625 C 56.59375 -5.285156 46.710938 1.828125 26.953125 1.828125 C 22.484375 1.828125 18.234375 1.140625 14.203125 -0.234375 C 10.179688 -1.617188 7.273438 -3.003906 5.484375 -4.390625 L 2.8125 -6.59375 L 11.59375 -21.34375 C 12.238281 -20.78125 13.085938 -20.109375 14.140625 -19.328125 C 15.203125 -18.554688 17.113281 -17.5 19.875 -16.15625 C 22.644531 -14.820312 25.046875 -14.15625 27.078125 -14.15625 C 31.554688 -14.15625 33.796875 -15.65625 33.796875 -18.65625 C 33.796875 -20.039062 33.222656 -21.117188 32.078125 -21.890625 C 30.941406 -22.671875 29.007812 -23.546875 26.28125 -24.515625 C 23.5625 -25.492188 21.429688 -26.390625 19.890625 -27.203125 C 15.984375 -29.234375 12.890625 -31.53125 10.609375 -34.09375 C 8.335938 -36.65625 7.203125 -40.050781 7.203125 -44.28125 C 7.203125 -50.625 9.660156 -55.5625 14.578125 -59.09375 C 19.492188 -62.632812 26.140625 -64.40625 34.515625 -64.40625 Z M 34.515625 -64.40625 "/></g></g></g><g fill="#ffffff" fill-opacity="1"><g transform="translate(232.876771, 229.546062)"><g><path d="M 10.984375 -62.578125 L 10.984375 -85.875 L 32.5625 -85.875 L 32.5625 -62.578125 L 45.75 -62.578125 L 45.75 -46.109375 L 32.5625 -46.109375 L 32.5625 -26.234375 C 32.5625 -20.453125 34.191406 -17.5625 37.453125 -17.5625 C 38.265625 -17.5625 39.117188 -17.722656 40.015625 -18.046875 C 40.910156 -18.378906 41.597656 -18.707031 42.078125 -19.03125 L 42.8125 -19.515625 L 48.1875 -2.078125 C 43.550781 0.523438 38.265625 1.828125 32.328125 1.828125 C 28.265625 1.828125 24.765625 1.117188 21.828125 -0.296875 C 18.898438 -1.722656 16.6875 -3.632812 15.1875 -6.03125 C 13.6875 -8.4375 12.609375 -10.957031 11.953125 -13.59375 C 11.304688 -16.238281 10.984375 -19.066406 10.984375 -22.078125 L 10.984375 -46.109375 L 1.953125 -46.109375 L 1.953125 -62.578125 Z M 10.984375 -62.578125 "/></g></g></g><g fill="#5ce1e6" fill-opacity="1"><g transform="translate(281.051019, 229.546062)"><g><path d="M 9.390625 -97.46875 C 11.910156 -99.988281 14.921875 -101.25 18.421875 -101.25 C 21.921875 -101.25 24.929688 -99.988281 27.453125 -97.46875 C 29.972656 -94.945312 31.234375 -91.9375 31.234375 -88.4375 C 31.234375 -84.9375 29.972656 -81.925781 27.453125 -79.40625 C 24.929688 -76.882812 21.921875 -75.625 18.421875 -75.625 C 14.921875 -75.625 11.910156 -76.882812 9.390625 -79.40625 C 6.867188 -81.925781 5.609375 -84.9375 5.609375 -88.4375 C 5.609375 -91.9375 6.867188 -94.945312 9.390625 -97.46875 Z M 7.3125 -62.578125 L 7.3125 0 L 28.90625 0 L 28.90625 -62.578125 Z M 7.3125 -62.578125 "/></g></g></g><g fill="#5ce1e6" fill-opacity="1"><g transform="translate(317.885375, 229.546062)"><g><path d="M 10.984375 -62.578125 L 10.984375 -85.875 L 32.5625 -85.875 L 32.5625 -62.578125 L 45.75 -62.578125 L 45.75 -46.109375 L 32.5625 -46.109375 L 32.5625 -26.234375 C 32.5625 -20.453125 34.191406 -17.5625 37.453125 -17.5625 C 38.265625 -17.5625 39.117188 -17.722656 40.015625 -18.046875 C 40.910156 -18.378906 41.597656 -18.707031 42.078125 -19.03125 L 42.8125 -19.515625 L 48.1875 -2.078125 C 43.550781 0.523438 38.265625 1.828125 32.328125 1.828125 C 28.265625 1.828125 24.765625 1.117188 21.828125 -0.296875 C 18.898438 -1.722656 16.6875 -3.632812 15.1875 -6.03125 C 13.6875 -8.4375 12.609375 -10.957031 11.953125 -13.59375 C 11.304688 -16.238281 10.984375 -19.066406 10.984375 -22.078125 L 10.984375 -46.109375 L 1.953125 -46.109375 L 1.953125 -62.578125 Z M 10.984375 -62.578125 "/></g></g></g></svg>