<svg xmlns="http://www.w3.org/2000/svg" xmlns:xlink="http://www.w3.org/1999/xlink" width="500" zoomAndPan="magnify" viewBox="0 0 375 374.999991" height="500" preserveAspectRatio="xMidYMid meet" version="1.0"><defs><clipPath id="8f79bb7348"><path d="M 26.722656 27 L 348 27 L 348 348.472656 L 26.722656 348.472656 Z M 26.722656 27 " clip-rule="nonzero"/></clipPath></defs><g clip-path="url(#8f79bb7348)"><path fill="#5ce1e6" d="M 347.09375 43.039062 L 232.757812 341.117188 C 232.339844 342.199219 231.773438 343.191406 231.058594 344.101562 C 230.339844 345.007812 229.503906 345.792969 228.550781 346.449219 C 227.597656 347.105469 226.570312 347.605469 225.464844 347.949219 C 224.359375 348.292969 223.226562 348.46875 222.070312 348.472656 L 221.265625 348.472656 C 220.660156 348.425781 220.058594 348.335938 219.46875 348.195312 C 218.875 348.054688 218.300781 347.867188 217.738281 347.636719 C 217.175781 347.40625 216.632812 347.132812 216.117188 346.8125 C 215.597656 346.496094 215.105469 346.140625 214.644531 345.746094 C 214.183594 345.347656 213.753906 344.917969 213.359375 344.457031 C 212.964844 343.992188 212.609375 343.5 212.296875 342.980469 C 211.980469 342.460938 211.707031 341.921875 211.476562 341.355469 C 211.246094 340.792969 211.0625 340.214844 210.925781 339.625 L 178.058594 197.136719 L 35.570312 164.617188 C 34.984375 164.46875 34.410156 164.28125 33.855469 164.046875 C 33.296875 163.808594 32.761719 163.53125 32.25 163.210938 C 31.734375 162.894531 31.25 162.535156 30.792969 162.136719 C 30.335938 161.742188 29.914062 161.3125 29.523438 160.847656 C 29.136719 160.386719 28.785156 159.894531 28.476562 159.375 C 28.164062 158.859375 27.894531 158.320312 27.667969 157.757812 C 27.441406 157.195312 27.261719 156.621094 27.125 156.03125 C 26.992188 155.441406 26.902344 154.847656 26.859375 154.242188 C 26.820312 153.640625 26.824219 153.039062 26.878906 152.433594 C 26.933594 151.832031 27.035156 151.238281 27.183594 150.652344 C 27.328125 150.066406 27.523438 149.496094 27.761719 148.9375 C 28 148.382812 28.277344 147.847656 28.601562 147.335938 C 28.921875 146.824219 29.285156 146.339844 29.683594 145.886719 C 30.082031 145.433594 30.511719 145.011719 30.976562 144.625 C 31.441406 144.238281 31.933594 143.890625 32.453125 143.582031 C 32.972656 143.273438 33.515625 143.003906 34.078125 142.78125 L 332.15625 28.101562 C 333.199219 27.683594 334.28125 27.425781 335.402344 27.324219 C 336.523438 27.222656 337.632812 27.285156 338.734375 27.511719 C 339.835938 27.738281 340.882812 28.117188 341.871094 28.652344 C 342.863281 29.183594 343.753906 29.847656 344.550781 30.644531 C 345.347656 31.4375 346.011719 32.332031 346.542969 33.324219 C 347.078125 34.3125 347.457031 35.359375 347.683594 36.460938 C 347.90625 37.5625 347.972656 38.671875 347.871094 39.792969 C 347.769531 40.914062 347.511719 41.996094 347.09375 43.039062 Z M 347.09375 43.039062 " fill-opacity="1" fill-rule="nonzero"/></g></svg>