<svg xmlns="http://www.w3.org/2000/svg" xmlns:xlink="http://www.w3.org/1999/xlink" width="500" zoomAndPan="magnify" viewBox="0 0 375 374.999991" height="500" preserveAspectRatio="xMidYMid meet" version="1.0"><defs><clipPath id="ac6bc80aaa"><path d="M 104.125 70.636719 L 295.375 70.636719 L 295.375 304.636719 L 104.125 304.636719 Z M 104.125 70.636719 " clip-rule="nonzero"/></clipPath></defs><path fill="#5ce1e6" d="M 139.753906 346.738281 L 119.300781 338.753906 C 79.300781 318.832031 51.769531 288.726562 36.703125 248.433594 C 21.726562 207.925781 23.5625 166.355469 42.210938 123.726562 C 62.121094 83.703125 92.210938 56.15625 132.480469 41.082031 C 172.96875 26.097656 214.515625 27.9375 257.125 46.59375 C 297.125 66.515625 324.65625 96.621094 339.722656 136.914062 C 354.699219 177.421875 352.863281 218.992188 334.214844 261.621094 C 314.304688 301.644531 284.214844 329.191406 243.945312 344.265625 C 230.949219 349.066406 217.46875 352.144531 203.5 353.503906 L 182.417969 354.125 C 168.203125 353.636719 153.980469 351.171875 139.753906 346.738281 " fill-opacity="1" fill-rule="nonzero"/><path fill="#5ce1e6" d="M 40.40625 134.238281 L 39.300781 137.742188 C 36.695312 145 34.632812 152.421875 33.121094 160.003906 C 32.613281 162.539062 32.171875 165.070312 31.796875 167.601562 L 31.277344 171.4375 C 30.964844 173.972656 30.710938 176.53125 30.519531 179.113281 L 30.535156 176.648438 C 30.761719 174.089844 31.054688 171.53125 31.410156 168.972656 L 31.992188 165.164062 C 32.410156 162.609375 32.890625 160.082031 33.433594 157.578125 C 33.980469 155.046875 34.582031 152.542969 35.246094 150.074219 L 36.296875 146.34375 C 37.015625 143.894531 37.800781 141.453125 38.652344 139.019531 L 40.40625 134.238281 M 138.503906 342.117188 L 141.128906 341.5 C 141.921875 341.113281 144.929688 341.035156 150.152344 341.265625 C 162.027344 343.875 174.453125 345.199219 187.425781 345.238281 C 196.679688 345.320312 207.753906 344.070312 220.644531 341.488281 C 219.1875 342.484375 218.28125 343.355469 217.929688 344.097656 C 226.75 342.09375 232.964844 340.394531 236.570312 339.003906 L 265.460938 323.976562 C 294.121094 298.367188 312.082031 277.554688 319.335938 261.535156 C 330.496094 238.097656 336.199219 215.585938 336.4375 194 C 336.460938 182.839844 335.914062 174.203125 334.789062 168.085938 C 332.859375 155.667969 329.585938 143.882812 324.976562 132.726562 C 324.191406 129.09375 324.351562 126.0625 325.460938 123.636719 C 323.257812 119.042969 320.828125 114.570312 318.183594 110.214844 L 307.390625 97.429688 C 297.617188 86.816406 290.726562 79.832031 286.726562 76.46875 C 277.285156 68.144531 266.972656 61.101562 255.789062 55.332031 C 251.175781 55.445312 248.417969 55.285156 247.507812 54.84375 L 224.171875 46.898438 C 213.46875 44.296875 205.046875 42.832031 198.90625 42.5 L 167.082031 44.617188 C 137.460938 48.683594 111.378906 60.546875 88.839844 80.199219 L 105.824219 71.941406 L 119.550781 66.8125 C 118.722656 69.886719 117.214844 72.539062 115.03125 74.765625 C 99.460938 85.21875 88.394531 95.449219 81.824219 105.457031 C 73.367188 115.851562 66.601562 127.253906 61.527344 139.667969 C 60.152344 142.71875 58.378906 147.964844 56.214844 155.40625 C 55.132812 163.855469 54.261719 167.769531 53.597656 167.140625 L 52.226562 177.019531 C 50.671875 192.636719 51.785156 208.046875 55.570312 223.253906 L 54.820312 223.628906 C 55.394531 226.605469 55.195312 229.558594 54.222656 232.476562 C 53.730469 234.5625 53.085938 235.289062 52.289062 234.660156 C 45.886719 223.214844 41.359375 212.945312 38.703125 203.855469 C 38.140625 207.425781 37.207031 210.253906 35.90625 212.34375 C 34.828125 204.910156 34.308594 197.429688 34.339844 189.902344 C 34.398438 177.335938 35.988281 164.960938 39.109375 152.78125 C 43.511719 137.074219 48.6875 124.378906 54.628906 114.695312 L 51.804688 115.433594 L 53.835938 109.921875 C 70.027344 84.828125 89.152344 66.480469 111.210938 54.882812 C 105.246094 56.300781 97.8125 59.167969 88.914062 63.484375 C 107.816406 48.996094 129.085938 39.175781 152.722656 34.019531 C 141.664062 36.261719 131.40625 39.507812 121.949219 43.757812 C 110.839844 48.261719 98.496094 55.804688 84.921875 66.390625 L 84.527344 65.964844 C 86.574219 64.292969 88.664062 62.671875 90.800781 61.09375 C 102.730469 52.6875 113.023438 46.738281 121.679688 43.242188 C 135.179688 37.664062 146.523438 34.136719 155.714844 32.664062 L 158.996094 30.617188 C 143.238281 33.039062 128.09375 37.90625 113.570312 45.214844 C 91.722656 56.210938 73.246094 71.339844 58.140625 90.597656 C 41.976562 125.460938 34.265625 143.605469 35.015625 145.035156 L 30.078125 178.386719 C 29.476562 186.105469 29.449219 193.839844 29.992188 201.585938 C 32.175781 230.554688 41.574219 256.960938 58.1875 280.800781 C 67.402344 294.476562 81.417969 308.378906 100.238281 322.503906 C 101.066406 323.078125 102.222656 325.332031 103.710938 329.269531 L 97.582031 326.730469 L 99.660156 328.839844 C 109.644531 338.335938 121.109375 346.476562 134.0625 353.261719 C 129.554688 356.777344 121.660156 355.429688 110.378906 349.226562 C 93.527344 340.703125 80.269531 331.980469 70.605469 323.054688 C 29.503906 286.671875 9.644531 239.5625 11.023438 181.726562 C 12.175781 177.519531 13.925781 174.769531 16.273438 173.480469 C 15.085938 187.789062 15.132812 195.949219 16.414062 197.957031 C 16.140625 185.628906 16.554688 175.949219 17.660156 168.917969 C 18.453125 181.445312 19.183594 187.949219 19.847656 188.425781 L 28.933594 139.144531 C 28.871094 138.03125 30.136719 134.269531 32.730469 127.851562 C 35.828125 120.265625 39.472656 112.933594 43.667969 105.863281 L 67.421875 70.703125 C 78.503906 60.140625 88.273438 52.402344 96.730469 47.488281 C 122.410156 36.878906 139.683594 30.734375 148.542969 29.054688 C 157.855469 26.59375 170.019531 25.152344 185.035156 24.730469 C 190.019531 24.902344 194.125 26.058594 197.355469 28.203125 C 209.363281 29.28125 218.617188 30.730469 225.113281 32.550781 C 248.851562 38.46875 270.226562 49.171875 289.238281 64.65625 C 328.125 96.59375 348.042969 140.117188 349 195.222656 C 348.855469 218.582031 342.285156 242.972656 329.296875 268.386719 C 321.652344 283.136719 304.984375 300.816406 279.300781 321.433594 C 271.59375 326.707031 266.046875 330.15625 262.660156 331.777344 L 231.148438 342.9375 C 223.613281 345.164062 215.949219 346.824219 208.164062 347.914062 C 184.433594 351.152344 161.214844 349.21875 138.503906 342.117188 " fill-opacity="1" fill-rule="nonzero"/><path fill="#5ce1e6" d="M 210.40625 30.796875 L 206.734375 30.792969 L 202.871094 30.683594 L 199.042969 30.667969 L 195.191406 30.75 L 191.339844 30.921875 L 187.492188 31.191406 L 183.660156 31.554688 L 179.824219 32.011719 L 176.015625 32.558594 L 172.207031 33.203125 L 168.429688 33.9375 L 164.65625 34.769531 L 166.136719 34.238281 L 169.914062 33.449219 L 173.710938 32.75 L 177.523438 32.144531 L 181.351562 31.628906 L 185.179688 31.210938 L 189.035156 30.886719 L 192.875 30.65625 L 196.746094 30.519531 L 200.585938 30.476562 L 204.429688 30.53125 L 208.296875 30.679688 L 210.40625 30.796875 M 40.109375 188.285156 L 41.476562 190.605469 C 42.074219 191.242188 43.050781 194.085938 44.398438 199.128906 C 45.476562 211.21875 47.925781 223.46875 51.734375 235.882812 C 54.222656 244.507812 58.882812 254.957031 65.722656 267.226562 L 62.246094 265.105469 C 63.554688 268.066406 66.859375 273.34375 72.15625 280.949219 L 89.417969 298.851562 C 94 303.433594 96.804688 305.914062 97.828125 306.300781 C 127.742188 324.121094 151.894531 334.589844 170.277344 337.707031 C 194.730469 342.03125 219.121094 340.757812 243.441406 333.894531 C 249.457031 332.316406 257.515625 329.15625 267.617188 324.417969 C 278.867188 318.78125 289.09375 312.109375 298.289062 304.402344 C 301.503906 302.660156 304.4375 301.894531 307.089844 302.109375 C 310.804688 298.621094 314.339844 294.960938 317.699219 291.128906 L 326.683594 277.011719 L 337.242188 257.816406 L 341.972656 247.578125 C 347.027344 234.734375 350.203125 223.941406 351.496094 215.203125 L 349.691406 206.953125 C 350.457031 193.503906 350.585938 184.136719 350.074219 178.855469 C 349.609375 171.496094 348.613281 164.226562 347.085938 157.046875 C 340.09375 137.210938 335.828125 126.160156 334.285156 123.886719 C 321.164062 97 301.796875 75.851562 276.175781 60.433594 C 285.269531 68.558594 292.851562 77.253906 298.925781 86.511719 C 295.765625 86.554688 292.808594 85.832031 290.058594 84.347656 C 281.4375 77.515625 273.492188 72.121094 266.214844 68.164062 L 247.574219 60.574219 C 234.984375 55.925781 221.996094 53.191406 208.605469 52.371094 C 199.296875 51.890625 190.878906 52.164062 183.363281 53.1875 C 178.953125 53.746094 174.578125 54.515625 170.246094 55.5 C 158.691406 57.730469 144.789062 63.285156 128.535156 72.15625 C 122.371094 73.855469 118.3125 74.25 116.355469 73.339844 C 125.363281 63.90625 133.75 56.5 141.519531 51.121094 L 141.734375 50.3125 L 134.527344 50.398438 C 134.199219 49.90625 135.609375 49.050781 138.757812 47.835938 C 159.726562 38.695312 181.628906 34.402344 204.460938 34.957031 C 214.585938 35.269531 224.40625 36.46875 233.921875 38.5625 C 233.140625 37.707031 232.433594 36.792969 231.808594 35.824219 C 233.941406 36.125 236.140625 36.34375 238.410156 36.484375 C 242.164062 37.28125 248.246094 39.207031 256.644531 42.261719 C 275.917969 49.738281 293.0625 60.585938 308.078125 74.800781 C 305.207031 69.859375 300.339844 63.738281 293.480469 56.4375 C 311.929688 68.960938 327.855469 86.492188 341.261719 109.019531 C 336.941406 100.785156 330.039062 91.160156 320.546875 80.136719 C 317.019531 76.210938 313.304688 72.46875 309.410156 68.90625 C 304.398438 64.171875 297.347656 58.664062 288.261719 52.386719 L 291.097656 53.746094 C 312.691406 68.246094 330.933594 88.414062 345.832031 114.246094 C 340.496094 101.78125 332.039062 89.277344 320.46875 76.738281 C 300.597656 56.367188 279.683594 42.355469 257.726562 34.699219 C 220.992188 29.683594 200.097656 27.773438 195.046875 28.964844 L 165.660156 34.03125 C 158.105469 35.730469 150.710938 37.980469 143.476562 40.769531 C 116.445312 51.355469 93.929688 68.039062 75.925781 90.824219 C 63.0625 107.863281 53.832031 125.597656 48.246094 144.03125 C 46.269531 147.582031 44.179688 149.605469 41.976562 150.105469 L 42.207031 144.695312 C 34.71875 160.179688 30.03125 174.667969 28.152344 188.15625 C 23.347656 183.695312 22.289062 175.277344 24.972656 162.90625 C 28.082031 144.292969 32.433594 129.042969 38.03125 117.152344 C 60.179688 67.199219 99.113281 33.863281 154.835938 17.148438 C 158.871094 16.738281 162.445312 17.40625 165.5625 19.152344 L 146.558594 24.601562 L 143.273438 26.332031 L 143.816406 26.4375 C 151.753906 23.664062 159.84375 21.484375 168.089844 19.902344 L 168.773438 20.042969 C 165.242188 21.199219 159.648438 23.574219 151.988281 27.175781 L 153.628906 27.308594 L 203.367188 21.179688 C 204.511719 20.941406 208.523438 21.101562 215.40625 21.65625 C 223.550781 22.390625 231.617188 23.722656 239.597656 25.648438 L 280.144531 37.902344 C 293.53125 45.363281 303.808594 52.386719 310.980469 58.980469 L 332.632812 85.914062 C 335.261719 89.074219 339.097656 94.710938 344.128906 102.832031 C 351.226562 114.753906 356.597656 127.09375 360.242188 139.84375 C 360.851562 141.207031 360.75 144.324219 359.941406 149.195312 C 362.308594 159.492188 363.769531 170.03125 364.324219 180.8125 C 365.378906 205.269531 361.222656 228.816406 351.867188 251.453125 C 332.511719 297.832031 296.691406 329.585938 244.410156 346.71875 C 218.03125 353.953125 191.503906 354.660156 164.824219 348.839844 C 162.203125 348.257812 159.601562 347.617188 157.027344 346.910156 L 140.117188 339.59375 C 121.722656 330.640625 108.359375 322.632812 100.019531 315.570312 C 95.847656 312.273438 91.882812 308.816406 88.125 305.195312 C 86.617188 303.625 85.636719 301.875 85.1875 299.949219 C 79.109375 293.253906 74.910156 288.292969 72.59375 285.066406 C 66.265625 276.695312 60.804688 267.789062 56.21875 258.347656 C 45.835938 237.449219 40.46875 214.09375 40.109375 188.285156 " fill-opacity="1" fill-rule="nonzero"/><g clip-path="url(#ac6bc80aaa)"><path fill="#ffffff" d="M 295.375 152.882812 L 295.375 153.558594 C 295.375 208.695312 254.273438 237.761719 197.96875 237.761719 L 166.90625 237.761719 L 166.90625 297.234375 C 166.90625 301.300781 163.613281 304.59375 159.550781 304.59375 L 111.480469 304.59375 C 107.417969 304.59375 104.121094 301.300781 104.121094 297.234375 L 104.121094 237.453125 C 104.121094 222.363281 114.652344 209.316406 129.402344 206.132812 L 129.707031 206.0625 C 132.898438 205.410156 144.980469 198.402344 144.980469 198.402344 C 162.828125 201.835938 174.273438 200.140625 180.609375 198.226562 C 180.992188 198.117188 181.351562 198.003906 181.703125 197.894531 C 189.09375 195.414062 200.308594 189.574219 203.59375 188.851562 C 206.902344 188.132812 237.125 183.867188 241.921875 181.578125 C 246.707031 179.285156 246.828125 177.273438 246.773438 176.265625 C 246.726562 175.277344 247.605469 171.886719 230.800781 173.714844 C 213.992188 175.535156 207.378906 176.046875 206.292969 174.304688 C 205.199219 172.546875 211.890625 168.679688 223.964844 163.003906 C 236.039062 157.359375 249.480469 150.097656 251.964844 145.71875 C 254.453125 141.332031 250.75 136.398438 242.628906 140.871094 C 234.53125 145.332031 208.78125 159.488281 205.257812 157.25 C 201.722656 155 217.109375 148.105469 224.070312 143.777344 C 231.023438 139.464844 247.78125 130.753906 249.660156 127.128906 C 251.515625 123.5 250.046875 120.511719 246.6875 120.75 C 243.304688 120.984375 236.011719 123.769531 227.019531 129.226562 C 218.035156 134.695312 203.832031 144.996094 200.5 143.296875 C 197.179688 141.589844 190.167969 146.550781 219.550781 123.109375 C 230.523438 114.171875 235.085938 108.203125 232.609375 105.980469 C 230.125 103.769531 227.433594 104.667969 215.722656 112.800781 C 204.007812 120.9375 184.300781 139.230469 176.328125 139.917969 C 168.351562 140.582031 163.632812 140.046875 162.726562 134.78125 C 161.828125 129.507812 165.207031 119.558594 164.382812 112.617188 C 163.566406 105.648438 161.734375 97.8125 156.730469 97.328125 C 151.714844 96.847656 151.328125 100.375 150.9375 103.363281 C 150.558594 106.363281 151.171875 120.261719 145.0625 129.765625 C 138.976562 139.269531 138.632812 161.941406 130.4375 165.328125 C 128.769531 166.011719 126.03125 166.78125 122.785156 167.59375 L 122.667969 167.625 C 113.238281 169.957031 104.121094 162.820312 104.121094 153.105469 L 104.121094 78.035156 C 104.121094 73.972656 107.417969 70.679688 111.480469 70.679688 L 201.207031 70.679688 C 258.484375 70.679688 295.375 101.085938 295.375 152.882812 " fill-opacity="1" fill-rule="nonzero"/></g></svg>